<?xml version="1.0" encoding="UTF-8"?>
<!-- Created with Inkscape (http://www.inkscape.org/) -->
<svg width="1472.3" height="1348.2" version="1.1" viewBox="0 0 1472.3 1348.2" xmlns="http://www.w3.org/2000/svg">
 <defs>
  <clipPath id="clipPath136014">
   <path d="m139.63 83.572 21.957-36.798 34.965 26.976-21.038 33.002z" fill="#84ad6b"/>
  </clipPath>
  <filter id="filter151481" x="-.067" y="-.086808" width="1.134" height="1.1736" color-interpolation-filters="sRGB">
   <feGaussianBlur stdDeviation="1.8808464"/>
  </filter>
  <filter id="filter151481-8" x="-.097281" y="-.12604" width="1.1946" height="1.2521" color-interpolation-filters="sRGB">
   <feGaussianBlur stdDeviation="2.7309188"/>
  </filter>
  <filter id="filter151485" x="-.067399" y="-.084534" width="1.1348" height="1.1691" color-interpolation-filters="sRGB">
   <feGaussianBlur stdDeviation="2.0781251"/>
  </filter>
  <clipPath id="clipPath117415">
   <path d="m118.89 130.29 20.735-46.721 35.884 23.181-16.97 36.312z" fill="#e7ce31"/>
  </clipPath>
  <filter id="filter145131" x="-.097695" y="-.12525" width="1.1954" height="1.2505" color-interpolation-filters="sRGB">
   <feGaussianBlur stdDeviation="2.7883786"/>
  </filter>
  <filter id="filter136042" x="-.070797" y="-.089844" width="1.1416" height="1.1797" color-interpolation-filters="sRGB">
   <feGaussianBlur stdDeviation="1.796875"/>
  </filter>
  <filter id="filter136034" x="-.093543" y="-.13159" width="1.1871" height="1.2632" color-interpolation-filters="sRGB">
   <feGaussianBlur stdDeviation="3.2350259"/>
  </filter>
  <filter id="filter141290" x="-.070161" y="-.082075" width="1.1403" height="1.1642" color-interpolation-filters="sRGB">
   <feGaussianBlur stdDeviation="1.8125"/>
  </filter>
  <filter id="filter158956" x="-.19491" y="-.18918" width="1.3898" height="1.3784" color-interpolation-filters="sRGB">
   <feGaussianBlur stdDeviation="2.68"/>
  </filter>
  <clipPath id="clipPath136328">
   <path d="m128.66 53.079-15.102 27.375 26.066 3.1178 21.957-36.798-10.421-2.7712zm0 0-15.102 27.375 26.066 3.1178 21.957-36.798-10.421-2.7712zm0 0-15.102 27.375 26.066 3.1178 21.957-36.798-10.421-2.7712z" fill="#de7b4a"/>
  </clipPath>
  <filter id="filter137422" x="-.08928" y="-.13665" width="1.1786" height="1.2733" color-interpolation-filters="sRGB">
   <feGaussianBlur stdDeviation="2.79"/>
  </filter>
  <filter id="filter136636" x="-.08941" y="-.12684" width="1.1788" height="1.2537" color-interpolation-filters="sRGB">
   <feGaussianBlur stdDeviation="2.2725"/>
  </filter>
  <filter id="filter136636-4" x="-.089379" y="-.14011" width="1.1788" height="1.2802" color-interpolation-filters="sRGB">
   <feGaussianBlur stdDeviation="2.16"/>
  </filter>
  <clipPath id="clipPath129004">
   <path d="m92.886 117.93 20.674-37.475 26.066 3.1178-17.702 40.599z" fill="#739cc6"/>
  </clipPath>
  <filter id="filter136022" x="-.08802" y="-.14919" width="1.176" height="1.2984" color-interpolation-filters="sRGB">
   <feGaussianBlur stdDeviation="3.6675"/>
  </filter>
  <filter id="filter136026" x="-.09984" y="-.14128" width="1.1997" height="1.2826" color-interpolation-filters="sRGB">
   <feGaussianBlur stdDeviation="3.12"/>
  </filter>
  <filter id="filter159204" x="-.17652" y="-.21888" width="1.353" height="1.4378" color-interpolation-filters="sRGB">
   <feGaussianBlur stdDeviation="2.28"/>
  </filter>
  <clipPath id="clipPath185906">
   <path d="m73.836 121.66-12.615 6.506 19.686 8.0353 7.3398-13.291-1.7967-7.6732z" fill="#292929" stroke-width=".080997"/>
  </clipPath>
  <filter id="filter194609" x="-.023819" y="-.017027" width="1.0437" height="1.0341" color-interpolation-filters="sRGB">
   <feGaussianBlur stdDeviation="0.78940001"/>
  </filter>
  <clipPath id="clipPath185796">
   <path d="m78.697 108.37 8.621 5.2929 1.7813 7.698 6.7916-12.298-1.6587-7.8922z" fill="#292929" stroke-width=".080997"/>
  </clipPath>
  <filter id="filter194605" x="-.023819" y="-.017027" width="1.0437" height="1.0341" color-interpolation-filters="sRGB">
   <feGaussianBlur stdDeviation="0.78940001"/>
  </filter>
  <clipPath id="clipPath185750">
   <path d="m86.518 94.346 8.5753 5.2727 1.6438 7.9155 6.895-12.485-1.5232-8.1053z" fill="#292929" stroke-width=".080997"/>
  </clipPath>
  <filter id="filter194601" x="-.023819" y="-.017027" width="1.0437" height="1.0341" color-interpolation-filters="sRGB">
   <feGaussianBlur stdDeviation="0.78940001"/>
  </filter>
  <clipPath id="clipPath185679">
   <path d="m109.71 73.205-15.601 7.5199 8.8494 4.6776 1.5085 8.128 6.6392-12.022z" fill="#292929" stroke-width=".080997"/>
  </clipPath>
  <filter id="filter194597" x="-.023819" y="-.017027" width="1.0437" height="1.0341" color-interpolation-filters="sRGB">
   <feGaussianBlur stdDeviation="0.78940001"/>
  </filter>
  <clipPath id="clipPath185654">
   <path d="m117.33 59.442-15.686 7.7741 8.9138 4.4615 1.3825 8.3253 6.6632-12.065z" fill="#292929" stroke-width=".080997"/>
  </clipPath>
  <filter id="filter194593" x="-.023819" y="-.017027" width="1.0437" height="1.0341" color-interpolation-filters="sRGB">
   <feGaussianBlur stdDeviation="0.78940001"/>
  </filter>
  <clipPath id="clipPath185599">
   <path d="m124.8 45.943-15.688 7.875 9.054 4.1101 1.2604 8.5161 6.5301-11.825z" fill="#292929" stroke-width=".080997"/>
  </clipPath>
  <filter id="filter194589" x="-.023819" y="-.017027" width="1.0437" height="1.0341" color-interpolation-filters="sRGB">
   <feGaussianBlur stdDeviation="0.78940001"/>
  </filter>
  <clipPath id="clipPath185553">
   <path d="m133.19 30.79-16.236 8.9698 8.6404 4.7541 1.1448 8.6949 7.4816-13.548z" fill="#292929" stroke-width=".080997"/>
  </clipPath>
  <filter id="filter194585" x="-.023819" y="-.017027" width="1.0437" height="1.0341" color-interpolation-filters="sRGB">
   <feGaussianBlur stdDeviation="0.78940001"/>
  </filter>
  <linearGradient id="linearGradient152720" x1="130.58" x2="144.86" y1="125.65" y2="99.168" gradientUnits="userSpaceOnUse">
   <stop stop-color="#181818" offset="0"/>
   <stop stop-color="#101010" offset="1"/>
  </linearGradient>
  <linearGradient id="linearGradient152947" x1="152.93" x2="166.08" y1="84.196" y2="59.808" gradientUnits="userSpaceOnUse">
   <stop stop-color="#181818" offset="0"/>
   <stop stop-color="#101010" offset="1"/>
  </linearGradient>
  <clipPath id="clipPath211125">
   <path d="m206.83 63.067-60.966 90.481 8.7905 16.451 51.764-98.629z" fill="#fff" stroke-width=".080997"/>
  </clipPath>
  <filter id="filter150576-5" x="-.06085" y="-.13781" width="1.1211" height="1.2756" color-interpolation-filters="sRGB">
   <feGaussianBlur stdDeviation="2.171875"/>
  </filter>
  <clipPath id="clipPath159489">
   <path d="m20.672 54.578-2.2031 3.7617 5.4746 0.11328 2.1543-3.6875zm10.549 8.6816-2.7012 4.6543 7.2266 0.41406 2.6055-4.5059zm-18.877 5.543-2.1797 3.7246 5.5 0.11133 2.2168-3.7969zm28.158 3.6992-3.0293 5.2617 9.8027 0.52734 3.0137-5.2637zm-17.578 5.0527-2.6836 4.623 7.2617 0.41406 2.6289-4.5488zm30.369 0.98437-4.1445 7.2617 12.219 0.74805 4.1152-7.2617zm14.65 6.207-4.9062 8.6875 13.82 0.98047 4.9473-8.834zm-35.375 1.5352-3.0586 5.3105 9.8086 0.5957 3.123-5.4551zm12.838 6.0801-4.1387 7.252 12.275 0.7461 4.1504-7.3262zm14.707 6.25-4.9922 8.8398 13.969 0.82813 4.9512-8.8379z" fill="#739cc6" stroke-width=".080997"/>
  </clipPath>
  <filter id="filter159743" x="-.071235" y="-.2232" width="1.1425" height="1.4464" color-interpolation-filters="sRGB">
   <feGaussianBlur stdDeviation="1.395"/>
  </filter>
  <filter id="filter160499" x="-.09" y="-.135" width="1.18" height="1.27" color-interpolation-filters="sRGB">
   <feGaussianBlur stdDeviation="2.025"/>
  </filter>
  <clipPath id="clipPath156035">
   <path d="m44.797 13.371-2.1445 3.6641 5.3965 0.12109 2.1797-3.7324zm10.457 8.4863-2.5879 4.459 7.082 0.49024 2.5781-4.459zm-18.357 5.0098-2.1641 3.6953 5.4219 0.11914 2.1562-3.6934zm27.609 3.9453-2.9102 5.0527 9.584 0.67383 2.9727-5.1934zm-17.123 4.6035-2.6523 4.5703 7.1152 0.49023 2.5605-4.4277zm29.77 1.3066-4.0332 7.0703 12.086 0.68164 4.0039-7.0684zm14.48 6.0801-4.8164 8.5293 13.705 0.83789 4.7363-8.4551zm-35.016 1.7109-2.9766 5.168 9.6699 0.60352 2.959-5.1699zm12.695 5.9512-4.0703 7.1328 12.143 0.67969 4-7.0605zm14.82 5.6172-4.8164 8.5293 13.727 0.91016 4.8184-8.6016z" fill="#de7b4a" stroke-width=".080997"/>
  </clipPath>
  <filter id="filter156042" x="-.034839" y="-.077143" width="1.0697" height="1.1543" color-interpolation-filters="sRGB">
   <feGaussianBlur stdDeviation="0.9"/>
  </filter>
  <filter id="filter156776" x="-.078372" y="-.25303" width="1.1567" height="1.5061" color-interpolation-filters="sRGB">
   <feGaussianBlur stdDeviation="3.69"/>
  </filter>
  <clipPath id="clipPath88346">
   <path d="m52.033-9.287e-6 -2.3722 4.0502 6.5222 0.35738 2.4036-4.1193zm10.074 7.8331-2.7706 4.77 8.7217 0.68475 2.7973-4.8401zm9.2651 8.8143-3.2913 5.7125 11.375 0.76249 3.3095-5.7823zm12.238 5.9765-4.3256 7.574 14.308 0.87141 4.3283-7.6433zm14.781 5.4008-5.6613 10.015 16.005 0.88619 5.6065-10.012zm28.519 2.537c-3.5905-0.04079-7.3525 0.06226-11.287 0.3094l-7.1618 12.808 17.13 0.83536 7.596-13.724c-2.031-0.12806-4.1236-0.20418-6.2778-0.22865zm8.1089 0.31483-7.469 13.509c10.26 0.4748 19.684 1.7393 28.282 3.7942l-16.741 30.824c-9.437-2.6495-18.889-4.0444-28.366-4.1864l-5.2096 9.4226c11.074-0.02794 20.66 1.1752 28.772 3.6106l-17.702 32.596c-9.7729-2.7925-19.201-4.4773-28.292-5.056l-7.4684 13.508c16.778 1.8752 30.975 5.3614 42.615 10.466 14.084 6.1763 24.352 14.182 30.805 24.043l52.589-100.34c-8.1491-9.9528-18.666-17.682-31.562-23.217-11.964-5.1346-25.373-8.1233-40.253-8.9735zm-106.7 9.6116-2.3933 4.0865 6.6143 0.35321 2.4676-4.2293zm79.343 4.6203-6.7446 12.061 17.249 0.75858 6.634-11.985zm-69.429 3.8231-2.8458 4.8993 8.8867 0.61144 2.8312-4.8987zm127.43 2.3323c1.017 0.32001 2.0077 0.68771 2.9739 1.1033 8.3203 3.5807 14.753 7.9992 19.303 13.262l-16.168 30.52c-5.9133-5.0932-12.468-9.1972-19.67-12.318l-3.285-1.3337zm-118.09 6.6902-3.3809 5.8673 11.537 0.75845 3.3994-5.9393zm52.5 0.73012-6.8447 12.24 17.33 0.7534 6.7725-12.236zm-40.083 5.3025-4.4846 7.8524 14.472 0.93635 4.4463-7.8514zm14.96 5.5092-5.8149 10.287 16.193 0.94812 5.7589-10.284zm17.465 2.8836-6.8642 12.275 17.412 0.74758 6.7511-12.198zm-88.789 10.274-2.4592 4.1987 6.7102 0.34812 2.5783-4.4191zm81.063 3.5423-7.1321 12.755 17.537 0.66769 7.0154-12.675zm59.426 5.0156c1.1373 0.37293 2.1933 0.77142 3.1707 1.1953 7.871 3.4172 14.364 7.8098 19.482 13.185l-16.866 31.841c-5.4657-4.6213-12.169-8.6661-20.111-12.139l-3.2837-1.4359zm-130.62 0.30694-2.9248 5.0352 9.1015 0.46028 2.9093-5.034zm9.7969 8.5724-3.5159 6.1025 11.746 0.67876 3.4922-6.1014zm53.435 0.3408-7.0716 12.647 17.662 0.5862 6.9143-12.492zm-40.92 5.8972-4.5646 7.993 14.722 0.85502 4.5676-8.0658zm15.185 5.5467-5.9742 10.568 16.427 0.93819 5.9166-10.566zm17.828 2.6973-7.5992 13.59c5.0308-0.10431 10.948 0.0885 17.753 0.57855l7.4766-13.508z" fill="#262529" stroke-width=".080997"/>
  </clipPath>
  <filter id="filter92217" x="-.22326" y="-.66383" width="1.4491" height="2.3273" color-interpolation-filters="sRGB">
   <feGaussianBlur stdDeviation="5.9375"/>
  </filter>
  <filter id="filter94435" x="-.25811" y="-.37896" width="1.5206" height="1.7576" color-interpolation-filters="sRGB">
   <feGaussianBlur stdDeviation="10.9375"/>
  </filter>
  <filter id="filter92973" x="-.25044" y="-.33878" width="1.5101" height="1.6568" color-interpolation-filters="sRGB">
   <feGaussianBlur stdDeviation="6.375"/>
  </filter>
  <filter id="filter98087" x="-.26933" y="-.57794" width="1.5395" height="2.1488" color-interpolation-filters="sRGB">
   <feGaussianBlur stdDeviation="8.0625001"/>
  </filter>
  <filter id="filter99550" x="-.32376" y="-.43327" width="1.6546" height="1.8644" color-interpolation-filters="sRGB">
   <feGaussianBlur stdDeviation="7.3125"/>
  </filter>
  <filter id="filter101012" x="-.79483" y="-.79246" width="2.5955" height="2.5858" color-interpolation-filters="sRGB">
   <feGaussianBlur stdDeviation="8.0000002"/>
  </filter>
  <filter id="filter102645" x="-.24773" y="-.41154" width="1.4909" height="1.8237" color-interpolation-filters="sRGB">
   <feGaussianBlur stdDeviation="10.9375"/>
  </filter>
  <filter id="filter104265" x="-.2148" y="-.62827" width="1.4304" height="2.2563" color-interpolation-filters="sRGB">
   <feGaussianBlur stdDeviation="3.4375001"/>
  </filter>
  <filter id="filter106616" x="-.23571" y="-.22" width="1.4714" height="1.44" color-interpolation-filters="sRGB">
   <feGaussianBlur stdDeviation="2.75"/>
  </filter>
  <filter id="filter150576" x="-.11244" y="-.25695" width="1.2243" height="1.5139" color-interpolation-filters="sRGB">
   <feGaussianBlur stdDeviation="4.256875"/>
  </filter>
  <filter id="filter95897" x="-.34978" y="-.4067" width="1.6963" height="1.8155" color-interpolation-filters="sRGB">
   <feGaussianBlur stdDeviation="3.68"/>
  </filter>
  <filter id="filter155523" x="-.14865" y="-.192" width="1.2973" height="1.384" color-interpolation-filters="sRGB">
   <feGaussianBlur stdDeviation="1.92"/>
  </filter>
 </defs>
 <g transform="translate(-29.69 -165)">
  <g>
   <path d="m34.064 1344.1q0.1987 2.8689 1.0603 4.6305 0.79524 1.7113 2.7171 3.1709 1.3917 1.1073 3.1148 1.661 1.6568 0.5536 4.2414 0.7549 3.4461 0.3524 8.1514 0.3524h48.842q6.8259 0 10.14-0.604 3.3136-0.604 5.3017-2.1643 3.5124-2.7682 3.8438-7.8014h1.5242v32.162h-1.5242q-0.19871-2.9193-1.0604-4.6809-0.9278-1.8119-2.7834-3.2212-2.1207-1.5603-5.3679-2.1139-3.3136-0.604-10.073-0.604h-59.247l80.056 25.921v1.057l-78.863 25.77h58.054q6.8259 0 10.073-0.5536 3.2473-0.604 5.3679-2.1643 1.9219-1.4093 2.7834-3.1709 0.86151-1.8119 1.0604-4.6808h1.5242v23.203h-1.5242q-0.19871-2.8689-1.0604-4.6305-0.86152-1.812-2.7834-3.2213-2.1207-1.5603-5.3679-2.1139-3.3136-0.604-10.073-0.604h-48.842q-3.0485 0-5.7656 0.1509-4.9041 0.2517-7.1573 1.1577-3.1147 1.2583-4.5727 3.4729-1.5242 2.1642-1.7893 5.7881h-1.5243v-21.844l70.844-21.794-70.844-22.599v-20.686z"/>
   <path d="m67.929 1347.7-2.3857-14.445h38.305l5.0366-0.05q4.5064 0 6.6271-0.4027 2.0544-0.4026 3.4461-1.5602 1.7893-1.4094 2.7171-5.1842h1.3254v22.196h-1.3254q-0.53016-3.0199-1.458-4.3286-0.99406-1.3086-3.3136-2.1139-1.5242-0.5537-4.5727-0.755-3.1148-0.2516-8.9466-0.2516h-16.369q-6.8259 0-9.5431 0.2516-2.7834 0.2517-4.5064 1.1073-1.8556 0.8557-2.6509 2.0636-0.86152 1.208-1.0603 3.4729zm-26.045-10.469q0 1.9629-1.6568 3.2715-1.6568 1.2583-4.1751 1.2583-2.4521 0-4.1088-1.3086-1.723-1.3086-1.723-3.2212t1.723-3.2213q1.6568-1.3086 4.1088-1.3086 2.5183 0 4.1751 1.3086 1.6568 1.2583 1.6568 3.2213z"/>
   <path d="m110.47 1293.8 0.46391-1.0067q7.0247 1.7616 10.14 5.3855 3.1147 3.6239 3.1147 9.9657 0 10.167-7.9525 15.955-7.82 5.6371-19.749 5.6371-5.8319 0-11.531-1.5603-5.6993-1.5603-9.7419-4.2782-4.639-3.0702-7.091-7.4994-2.4521-4.4795-2.4521-9.7644 0-7.298 4.3076-11.425 2.6509-2.5165 5.8319-2.5165 2.1207 0 3.5786 1.0569 1.3917 1.057 1.3917 2.567 0 3.2715-6.2958 4.8318-2.9159 0.7046-3.9763 1.1576-1.0603 0.4027-1.8556 1.208-1.5242 1.5603-1.5242 3.8252 0 2.9696 2.1869 5.4862 1.9219 2.2146 4.8378 3.7748 2.8497 1.51 7.2236 2.6676 6.6934 1.7616 13.122 1.7616 5.8981 0 11.531-1.6106 5.6331-1.6106 9.4105-4.3788 5.9644-4.3286 5.9644-10.167 0-4.8319-4.0426-8.0028-2.1207-1.6106-6.8922-3.0702z"/>
   <path d="m75.881 1282.3q-4.1751-1.8119-6.2958-4.0768-3.91-4.1776-3.91-9.5127 0-3.2716 1.9219-4.9829 1.7231-1.5602 4.2414-1.5602 1.8556 0 3.0485 0.9563 1.1929 0.9059 1.1929 2.3656 0 1.7112-1.8556 2.9695l-2.2532 1.5603q-2.5846 1.8623-2.5846 4.3789 0 3.4225 5.8319 5.3351 5.8319 1.9126 16.236 1.9126h12.393l5.0366-0.05q4.5064 0 6.6271-0.4027 2.0544-0.4027 3.4461-1.5603 1.7893-1.4093 2.7171-5.1841h1.3254v22.196h-1.3254q-0.53016-3.0199-1.458-4.3285-0.99406-1.3086-3.3136-2.1139-1.5242-0.5537-4.5727-0.755-3.1148-0.2517-8.9466-0.2517h-16.369q-6.8259 0-9.5431 0.2517-2.7834 0.2516-4.5064 1.1073-1.8556 0.8556-2.6509 2.0636-0.86152 1.208-1.0603 3.4729h-1.3254l-2.3857-12.935q6.0307-0.8556 10.338-0.8556z"/>
   <path d="m95.034 1267.2q-10.736 0-19.152-6.0398-10.206-7.3484-10.206-17.566 0-10.217 10.206-17.516 8.4827-6.0398 19.219-6.0398 10.603 0 18.887 5.7378 10.206 7.0465 10.206 17.818 0 10.771-10.206 17.868-3.9763 2.7683-8.8804 4.2782-4.9041 1.4596-10.073 1.4596zm-0.72899-9.1603q11.531 0 19.55-3.9259 8.9466-4.4292 8.9466-10.821 0-2.7179-1.9881-5.2849-1.9881-2.5669-5.5668-4.4291-3.7112-1.963-9.278-3.1709-5.6331-1.208-10.868-1.208-5.4342 0-10.935 1.3086-5.5668 1.2583-9.5431 3.4226-7.4887 4.1272-7.4887 10.117 0 5.6874 7.8863 9.8146 7.8863 4.1776 19.285 4.1776z"/>
   <path d="m123 1220.3h-18.755v-0.8053q6.8922-1.4093 11.001-3.5232 7.4886-3.8756 7.4886-9.0597 0-3.1709-2.5183-5.4862-2.7834-2.5166-7.8863-2.5166-4.1751 0-7.2898 1.812-1.6568 1.0066-3.0485 2.5669-1.3917 1.51-3.91 5.1338-4.4402 6.3418-7.4224 8.4558-4.2414 3.0199-9.8081 3.0199-5.9644 0-10.272-3.0199-4.9041-3.4729-4.9041-9.2108 0-2.5669 1.1929-4.7815l0.99407-1.7112q0.3976-0.8054 0.3976-1.4093 0-0.9563-1.9881-1.812v-1.0066l15.044-0.5537v1.057q-3.181 0.5537-5.1029 1.208-1.9219 0.604-3.7112 1.7616-2.5183 1.5603-3.91 3.6239-1.458 2.0636-1.458 4.0768 0 2.8186 2.7171 4.8319 2.6509 1.9629 6.5609 1.9629 3.2473 0 5.8981-1.7616 2.5846-1.8119 4.7716-5.5365l3.181-5.3351q2.8497-4.7816 7.091-7.1472 4.2414-2.3655 10.007-2.3655 6.9585 0 11.531 3.4225 5.3017 3.9259 5.3017 10.066 0 3.3218-1.723 6.7444-1.1266 2.2146-1.2592 2.6676-0.1987 0.453-0.1987 1.1576 0 1.7616 1.9882 2.6676z"/>
   <path d="m95.034 1193.7q-10.736 0-19.152-6.0398-10.206-7.3485-10.206-17.566t10.206-17.515q8.4827-6.0399 19.219-6.0399 10.603 0 18.887 5.7379 10.206 7.0464 10.206 17.817t-10.206 17.868q-3.9763 2.7682-8.8804 4.2782-4.9041 1.4596-10.073 1.4596zm-0.72899-9.1604q11.531 0 19.55-3.9259 8.9466-4.4292 8.9466-10.821 0-2.7179-1.9881-5.2848-1.9881-2.567-5.5668-4.4292-3.7112-1.963-9.278-3.1709-5.6331-1.208-10.868-1.208-5.4342 0-10.935 1.3086-5.5668 1.2583-9.5431 3.4226-7.4887 4.1272-7.4887 10.117 0 5.6875 7.8863 9.8147 7.8863 4.1775 19.285 4.1775z"/>
   <path d="m69.188 1135.2h34.66l5.0366-0.05q4.5064 0 6.6271-0.4026 2.0544-0.4027 3.4461-1.5603 1.7893-1.4093 2.7171-5.1842h1.3254v22.196h-1.3254q-0.53016-3.0199-1.458-4.3285-0.99406-1.3087-3.3136-2.114-1.5242-0.5536-4.5727-0.755-3.1148-0.2516-8.9466-0.2516h-34.196v7.2981h-2.5183v-7.2981h-16.17q-5.8319 0-9.2117-1.1073-3.3798-1.1577-6.2295-4.0769-2.5183-2.6172-3.91-6.3921-1.458-3.8252-1.458-8.0531 0-3.9259 1.7893-6.2914 1.7893-2.3656 4.7715-2.3656 1.9881 0 3.3136 1.0066 1.3254 0.9563 1.3254 2.3656 0 1.3589-0.92779 2.3656-0.99407 1.0066-3.181 2.0132-3.0485 1.4093-3.9762 2.3153-0.99407 0.906-0.99407 2.4663 0 1.9126 1.0603 3.6238 0.99407 1.7113 2.6509 2.6676 1.8556 1.057 4.9041 1.4597 2.9822 0.4026 8.6816 0.4026h17.562v-9.9153h2.5183z"/>
   <path d="m66.669 1116.6v-12.835h2.5183v12.835h38.57q6.9585 0 9.9407-1.8119 1.6568-0.9563 2.5846-2.5166 0.92782-1.5603 0.92782-3.3722 0-2.265-1.1929-3.7749-1.2591-1.51-4.5064-3.3219l0.86151-0.755q3.9763 1.661 5.8982 4.6809 1.9219 2.9695 1.9219 7.4491 0 5.9391-3.0484 8.657-1.5905 1.4596-3.7775 1.9126-2.2532 0.453-8.0188 0.453h-40.16v5.3855h-1.0603q-1.3917-3.2716-5.368-6.0398-2.452-1.661-4.8378-2.6676-2.4521-1.0066-6.2958-1.9126l-2.1869-0.5033v-1.8623z"/>
   <path d="m408.64 1147v6.0153q-5.8656 0.7805-9.5702 4.1842-3.6017 3.399-6.483 10.983-4.0133 10.46-4.9395 29.027-0.61741 13.861-0.61741 31.905v192.73q0 21.706 0.82323 34.258 0.82323 12.552 2.6756 20.137 2.6755 10.46 6.8946 15.691 4.2191 4.9681 11.217 6.0141v6.0153h-65.757v-6.0153q5.9685-0.7805 9.5702-4.1842 3.7046-3.6611 6.483-10.983 3.293-8.3683 4.4249-21.182 1.1319-12.814 1.1319-39.751v-192.73q0-26.936-1.1319-39.751-1.132-12.813-4.4249-21.182-2.7785-7.5844-6.483-10.983-3.7046-3.4003-9.5702-4.1842v-6.0153z"/>
   <path d="m430.89 1194.4v227.52q0 26.936 1.1319 39.751 1.2348 12.813 4.4249 21.182 2.8814 7.5844 6.483 10.983 3.7046 3.4002 9.5702 4.1842v6.0153h-47.439v-6.0153q5.8656-0.7805 9.4673-4.1842 3.7046-3.399 6.5859-10.983 3.1901-8.3683 4.322-21.182 1.2349-13.077 1.2349-39.751v-193q0-26.412-1.2349-39.226-1.1319-13.075-4.322-21.444-2.7784-7.5844-6.483-10.983-3.6017-3.4003-9.5702-4.1842v-6.0153h39.619l83.559 270.93v-188.81q0-26.936-1.2349-39.751-1.1319-12.813-4.322-21.182-2.8814-7.5844-6.586-10.983-3.6017-3.4003-9.4673-4.1842v-6.0153h47.439v6.0153q-10.291 0-16.053 15.168-3.1901 8.3683-4.4249 21.444-1.132 12.815-1.132 39.226v275.11h-4.6307z"/>
   <path d="m542.63 1498q5.9685-0.7805 9.5702-4.1842 3.6017-3.399 6.4831-10.983 3.19-8.3683 4.322-21.182 1.2348-13.077 1.2348-39.751v-192.73q0-28.766-1.4407-42.104-1.3378-13.338-5.3511-21.967-5.0424-10.722-14.818-12.029v-6.0153h56.598q18.832 0 23.977 1.0484 21.713 4.1841 36.84 31.381 14.407 25.89 22.433 67.994 8.027 41.842 8.027 91.267 0 36.09-4.6309 68.255-4.5278 31.905-12.657 53.087-11.423 29.813-28.505 37.92-12.76 6.0153-26.035 6.0153h-76.047zm44.146-342.84v259.94q0 25.628 1.132 38.966 1.1319 13.338 4.2191 22.752 6.5859 20.398 21.404 20.398 12.657 0 21.61-10.46 9.0561-10.722 16.156-34.52 6.9975-23.013 10.599-52.564 3.7046-29.812 3.7046-63.285 0-37.136-4.4251-70.609-4.4247-33.473-12.657-58.578-11.423-34.781-27.27-46.027-8.644-6.0141-22.022-6.0141z"/>
   <path d="m698.89 1328q0-43.935 7.4091-81.331 7.4091-37.657 21.61-65.64 10.599-20.659 22.845-31.642 12.246-11.246 24.697-11.246 15.847 0 30.666 17.783 14.818 17.522 25.932 49.688 18.112 52.302 18.112 118.99 0 33.474-4.7336 64.593-4.734 31.12-13.79 56.748-11.114 31.905-26.343 49.426-15.127 17.522-31.695 17.522-16.362 0-31.283-16.999-14.921-16.998-25.727-48.118-8.5408-24.321-13.172-55.179-4.5278-31.12-4.5278-64.593zm24.903 3.922q0 75.839 16.259 127.88 7.3064 23.275 15.436 33.996 8.2328 10.46 18.935 10.46 10.805 0 18.934-10.46 8.2328-10.46 15.642-33.996 16.259-52.303 16.259-128.93 0-42.104-4.5278-79.499-4.4251-37.659-12.554-63.81-6.5859-21.444-14.716-31.12-8.0265-9.9373-19.038-9.9373-10.908 0-18.935 9.6764-7.9234 9.6753-14.715 31.381-8.1297 25.89-12.555 63.547-4.4247 37.657-4.4247 80.807z"/>
   <path d="m829.05 1147h64.727v6.0153q-9.0556 0-12.348 3.399-2.7786 3.1382-4.5283 10.2-1.7491 7.0602-1.7491 15.952 0 10.983 3.2929 30.336l2.6755 16.214 32.003 198.75 22.33-171.29q4.322-32.951 4.322-49.165 0-12.029-1.7491-23.275-1.6465-11.506-4.4251-18.567-2.6755-6.7993-6.1743-9.6765-3.3956-2.876-8.7471-2.876v-6.0153h66.169v6.0153q-6.0716 0-8.8502 1.0484-2.6755 1.0483-5.0421 4.4451-3.0871 4.7071-5.0425 13.598-1.8523 8.6304-1.8523 18.829 0 9.4156 2.8813 32.689l25.315 207.38 28.299-176.52q6.5859-40.534 6.5859-62.763 0-23.275-6.0716-32.95-3.7046-5.7532-11.216-5.7532v-6.0153h47.645v6.0153q-6.8943 1.83-10.496 6.7993-3.4987 4.7072-6.9975 17.52-5.1452 18.306-12.863 66.163l-42.294 260.47h-4.2193l-36.634-278.51-37.149 278.51h-4.6309l-45.999-281.39-3.0871-19.09q-3.1898-19.353-5.351-27.982-2.1608-8.6304-5.2479-13.598-2.4702-4.1842-5.3515-6.0153-2.8813-1.83-8.1292-2.8761z"/>
   <path d="m1031.3 1503.2 0.353-108h2.7149q4.9591 41.319 11.807 65.116 12.868 43.934 32.349 43.934 13.577 0 22.432-20.136 8.8549-20.137 8.8549-50.995 0-13.338-2.0072-27.198-1.889-13.859-5.1947-23.797-3.4241-10.2-9.6813-19.614-6.139-9.4143-18.89-23.798-11.215-12.552-17.237-21.182-5.9029-8.6304-9.563-17.522-10.153-24.582-10.153-59.886 0-21.706 3.8962-41.843 4.0139-20.136 11.098-34.519 12.514-25.628 29.634-25.628 5.5491 0 10.272 2.6151 4.7221 2.353 12.632 9.6764 5.9034 5.2302 8.0288 6.7993 2.125 1.3069 3.7779 1.3069 4.1317 0 5.5486-13.338h2.7159l0.8259 103.82h-2.7154q-3.1875-24.844-5.549-37.92-2.2428-13.338-5.4308-24.582-5.785-20.398-12.75-30.074-6.9659-9.9373-16.057-9.9373-13.223 0-20.897 19.875-3.188 8.1074-5.077 19.091-1.7711 10.983-1.7711 21.967 0 43.673 25.384 70.347l16.647 17.783q19.244 20.137 27.745 44.458 9.6812 27.197 9.6812 63.285 0 24.06-4.3683 46.027-6.1394 30.597-18.418 47.334-12.279 16.476-28.926 16.476-15.229 0-29.279-13.338-7.3197-7.0613-8.7366-8.1073-1.4163-1.0484-3.1875-1.0484-5.6673 0-7.7923 12.552z"/>
   <path d="m118.23 1080h70.833v7.1448q-9.9099 0-13.514 4.0379-3.0406 3.7275-4.955 12.114-1.9144 8.3859-1.9144 18.948 0 13.045 3.6036 36.031l2.9279 19.259 35.022 236.07 24.437-203.46q4.7297-39.138 4.7297-58.397 0-14.289-1.9144-27.645-1.8018-13.668-4.8423-22.055-2.9279-8.0757-6.7568-11.493-3.7162-3.4162-9.572-3.4162v-7.1448h72.41v7.1448q-6.6442 0-9.6847 1.2422-2.9279 1.2421-5.518 5.2811-3.3784 5.5902-5.518 16.151-2.027 10.251-2.027 22.365 0 11.183 3.1532 38.828l27.703 246.32 30.968-209.67q7.2072-48.146 7.2072-74.549 0-27.645-6.6441-39.138-4.0541-6.8335-12.275-6.8335v-7.1448h52.14v7.1448q-7.545 2.1741-11.486 8.0757-3.8288 5.5913-7.6577 20.812-5.6306 21.744-14.077 78.588l-46.284 309.38h-4.6171l-40.09-330.81-40.653 330.81h-5.0676l-50.338-334.23-3.3784-22.675q-3.491-22.986-5.8558-33.237t-5.7432-16.152q-2.7027-4.9697-5.8559-7.1449-3.1531-2.174-8.8964-3.4162z"/>
   <path d="m1181.4 1136.6v269.93q0 31.958 1.6051 47.162 1.75 15.202 6.2718 25.13 4.0842 8.9985 9.1902 13.032 5.2515 4.0344 13.565 4.9646v7.1368h-67.244v-7.1368q8.3141-0.9263 13.42-4.9646 5.2509-4.033 9.3361-13.032 4.5208-9.9281 6.1253-25.13 1.7511-15.515 1.7511-47.162v-228.98q0-31.336-1.7511-46.54-1.6045-15.513-6.1253-25.441-3.9387-8.9995-9.1907-13.032-5.1055-4.0344-13.565-4.9651v-7.1363h56.159l118.45 321.44v-224.02q0-31.958-1.75-47.161-1.6056-15.203-6.128-25.131-4.0835-8.9995-9.3351-13.032-5.1045-4.0344-13.42-4.9651v-7.1363h67.246v7.1363q-14.587 0-22.756 17.997-4.5219 9.9281-6.2723 25.441-1.6046 15.204-1.6046 46.54v326.4h-6.5642z"/>
   <path d="m1492.9 1080.5 9.1242 99.32h-5.6394c-1.096-17.488-2.5807-29.98-4.4527-37.474-3.0682-12.076-7.1738-20.925-12.318-26.547-5.0469-5.8347-11.725-8.7518-20.036-8.7518h-28.351v323.57c0 26.027 1.337 46.103 4.0105 52.554 3.7598 8.7474 9.547 13.12 17.361 13.12h6.9793v7.7179h-85.342v-7.7179h7.1236c8.5088 0 14.546-5.4121 18.109-16.236 2.1672-6.6645 3.2508-25.702 3.2508-49.438v-323.57h-24.191c-9.3999 0-16.079 1.4556-20.036 4.3679-5.1439 3.9554-9.5459 11.554-13.207 22.796-3.6636 11.247-5.8405 26.447-6.5329 45.601h-5.64l6.9841-99.32z" stroke-width="15.032"/>
  </g>
  <g transform="matrix(6.1587 0 0 6.1587 96.823 165)">
   <g clip-path="url(#clipPath136014)">
    <path d="m139.63 83.572 25.374-38.572 35 15-24.49 46.753z" fill="#84ad6b" stop-color="#000000" style="-inkscape-stroke:none;font-variation-settings:normal"/>
    <path d="m139.63 83.572 22.374-43.572 45 16-17 29-20-13-14 20z" fill="#426352" filter="url(#filter151481)" stop-color="#000000" style="-inkscape-stroke:none;font-variation-settings:normal;mix-blend-mode:normal"/>
    <path d="m139.63 83.572 22.374-43.572 45 16-15 27-22-16-15 25z" fill="#4a5a42" filter="url(#filter151481-8)" stop-color="#000000" style="-inkscape-stroke:none;font-variation-settings:normal;mix-blend-mode:normal"/>
    <path d="m168 33-1.2793 3.1426-0.7207-0.69141-29 48.549 15 8 17-27 27 16 15-27z" fill="#101010" filter="url(#filter151485)" style="mix-blend-mode:normal"/>
   </g>
   <g clip-path="url(#clipPath117415)">
    <path d="m118.89 130.29 20.735-46.721 42.874 22.928-22.258 45.465zm0 0 20.735-46.721 42.874 22.928-22.258 45.465z" fill="#e7ce31"/>
    <path d="m114 128 25.626-44.428 42.874 22.928-10.5 17.5-24-12-14 25z" fill="#846329" filter="url(#filter145131)" style="mix-blend-mode:normal"/>
    <path d="m133 100-13.913 23.561 9.9134 7.4386 17-29 27 19 7-20-36-18z" fill="#6b4229" filter="url(#filter136042)" style="mix-blend-mode:normal"/>
    <path d="m125 134 21-36 36 24 11-20-56-27-27 54z" fill="#4a2921" filter="url(#filter136034)" style="mix-blend-mode:normal"/>
    <path d="m128 137 17-31 4 2 2-3 23 13 4-19-38-15-24 44z" fill="#101010" filter="url(#filter141290)" style="mix-blend-mode:normal"/>
    <path d="m135 140 14-19 19 6-8 28z" fill="#ded631" filter="url(#filter158956)" style="mix-blend-mode:normal"/>
   </g>
   <g clip-path="url(#clipPath136328)">
    <path d="m128.66 53.079-15.102 27.375 26.066 3.1178 21.957-36.798-10.421-2.7712zm0 0-15.102 27.375 26.066 3.1178 21.957-36.798-10.421-2.7712zm0 0-15.102 27.375 26.066 3.1178 21.957-36.798-10.421-2.7712z" fill="#de7b4a" stop-color="#000000" style="-inkscape-stroke:none;font-variation-settings:normal"/>
    <path d="m96 77 25 2 9-15 23 4 18-34-62-4z" fill="#b55a39" filter="url(#filter137422)" style="mix-blend-mode:normal"/>
    <path d="m118 64 36 1 25-37-58-6z" fill="#7b5231" filter="url(#filter136636)" style="mix-blend-mode:normal"/>
    <path d="m122 56 33 3 24-31-58-6z" fill="#101010" filter="url(#filter136636-4)" style="mix-blend-mode:normal"/>
   </g>
   <g clip-path="url(#clipPath129004)">
    <path d="m49 116 32-64 84 18-37 70z" fill="#739cc6"/>
    <path d="m107 108h23l22-34-73-8-27 58 44 1z" fill="#4a6b94" filter="url(#filter136022)" style="mix-blend-mode:normal"/>
    <path d="m69 121h17l16-24 34 4 8-22-39-11z" fill="#101010" filter="url(#filter136026)" style="mix-blend-mode:normal"/>
    <path d="m96 128 11-17 20-1-3 25z" fill="#739cc6" filter="url(#filter159204)" style="mix-blend-mode:normal"/>
   </g>
   <path d="m34.001 122.13-2.7583-7.8128 14.722 0.85502 2.5109 7.7655z" fill="#101010"/>
   <path d="m55.912 108.35-12.07-0.70763-2.5731-8.0259 12.275 0.74455z" fill="#101010"/>
   <path d="m63.595 94.736-12.016-0.71264-2.4292-8.222 12.218 0.74679z" fill="#101010"/>
   <path d="m72.053 81.153-14.235-0.89846-2.3139-8.4154 14.472 0.93623z" fill="#101010"/>
   <path d="m79.336 66.849-11.946-0.65128-2.148-8.5995 12.143 0.67876z" fill="#101010"/>
   <path d="m87.027 53.223-11.892-0.65661-2.0167-8.773 12.086 0.68132z" fill="#101010"/>
   <path d="m95.283 39.981-14.081-0.84435-1.9166-8.9384 14.309 0.87121z" fill="#101010"/>
   <path d="m10.961 95.479-9.7957-8.627 9.2885-4.0708 3.0372 8.3378z" fill="#292929"/>
   <path d="m4.3524 95.149-3.1867-8.2964 6.7103 0.34817 3.0854 8.2788z" fill="#101010"/>
   <path d="m13.185 81.009-3.0212-8.482 7.7167-3.6841 0.72335 12.266z" fill="#293952"/>
   <path d="m18.603 81.109-2.9385-8.4713 2.2152-3.7951 2.8982 8.5198z" fill="#395273"/>
   <path d="m35.182 53.739-9.2554-9.1648 9.0818-3.8761 2.5991 8.8612z" fill="#292929"/>
   <path d="m42.666 39.658-7.9325-9.0962 7.5778-3.5743 2.475 9.0179z" fill="#734a31"/>
   <path d="m50.43 26.282-7.7772-9.2474 7.5743-3.6096 2.3463 9.1648z" fill="#734a31"/>
   <path d="m58.436 13.666-8.7752-9.6159 8.9258-3.7617 2.2155 9.3001z" fill="#292929"/>
   <path d="m26.734 67.103-5.393-0.10435-2.8709-8.6593 7.6274-3.5746z" fill="#293952"/>
   <path d="m26.734 67.103-2.7895-8.6497 2.1529-3.6886 2.7516 8.6948z" fill="#395273"/>
   <path d="m35.182 53.739-6.5173-0.34-2.7382-8.8248 6.6142 0.35308z" fill="#101010"/>
   <path d="m42.666 39.658-5.3428-0.11198-2.5898-8.9842 5.4218 0.1196z" fill="#6b4229"/>
   <path d="m50.43 26.282-5.3183-0.11571-2.4589-9.1316 5.396 0.12219z" fill="#6b4229"/>
   <path d="m58.436 13.666-6.4294-0.34884-2.3458-9.267 6.5223 0.35752z" fill="#101010"/>
   <path d="m22.592 105.12-12.021-8.5703 12.011-4.5738 2.865 8.1802z" fill="#292929"/>
   <path d="m13.634 104.69-3.0623-8.1351 9.1013 0.46023 2.9197 8.1101z" fill="#101010"/>
   <path d="m23.126 90.506-2.8853-8.3286 9.8903-4.1349 0.14309 12.858z" fill="#293952"/>
   <path d="m31.255 76.429-2.7349-8.515 9.8314-4.0921 0.01808 13.005z" fill="#293952"/>
   <path d="m54.192 49.319-7.0086-0.47462-2.4532-8.8578 9.6752-3.9378z" fill="#6b4229"/>
   <path d="m61.964 35.808-6.9768-0.47702-2.3218-9.0148 9.6603-3.9685z" fill="#6b4229"/>
   <path d="m72.896 17.65-2.7536 4.7882-10.806-9.8352 11.519-4.1554z" fill="#292929"/>
   <path d="m70.143 22.438-8.593-0.66926-2.2128-9.1659 8.7218 0.68481z" fill="#101010"/>
   <path d="m37.692 108.79-3.4264 6.0127-14.489-8.6108 15.238-5.4225z" fill="#292929"/>
   <path d="m34.266 114.8-11.555-0.64284-2.9336-7.9679 11.746 0.6787z" fill="#101010"/>
   <path d="m41.915 100.33-9.6498-0.56914-2.7541-8.1724 12.931-4.859z" fill="#293952"/>
   <path d="m49.728 86.627-9.6473-0.50092-2.6086-8.3612 12.816-4.7366z" fill="#293952"/>
   <path d="m65.485 58.985-9.518-0.58095-2.3261-8.7221 12.628-4.5664z" fill="#6b4229"/>
   <path d="m63.79 44.753-2.1933-8.8886 12.557-4.5189-0.9288 14.063z" fill="#6b4229"/>
   <path d="m84.628 26.43-3.2579 5.7168-13.243-9.8659 14.64-4.9411z" fill="#292929"/>
   <path d="m81.37 32.147-11.201-0.74186-2.0875-9.0454 11.376 0.76255z" fill="#101010"/>
   <path d="m32.855 86.412-2.5816 4.4878-2.7727-8.3092 2.6296-4.5487z" fill="#395273"/>
   <path d="m40.929 72.377-2.5596 4.4497-2.6238-8.4977 2.6057-4.5074z" fill="#395273"/>
   <path d="m49.533 58.276-2.7826 4.8387-11.362-9.2842 11.718-4.2874z" fill="#292929"/>
   <path d="m37.999 62.524-2.6104-8.6934 8.8865 0.61165 2.4754 8.6727z" fill="#101010"/>
   <path d="m56.709 44.944-2.5169 4.3753-2.3459-8.8428 2.5593-4.4275z" fill="#734a31"/>
   <path d="m64.5 31.399-2.5362 4.409-2.2158-9.0013 2.5775-4.459z" fill="#734a31"/>
   <path d="m44.981 94.953-3.0669 5.3799-2.5965-8.1443 3.124-5.4562z" fill="#395273"/>
   <path d="m59.987 101.13-4.0754 7.2199-14.644-8.7336 16.426-6.5817z" fill="#395273"/>
   <path d="m55.912 108.35-12.07-0.70763-2.5731-8.0259 12.275 0.74455z" fill="#293952"/>
   <path d="m52.957 115-4.482 7.9439-17.233-8.6206 19.289-7.2106z" fill="#292929"/>
   <path d="m48.475 122.94-14.474-0.80779-2.7583-7.8128 14.722 0.85502z" fill="#101010"/>
   <path d="m52.687 81.435-2.9594 5.1915-2.4523-8.3364 3.0128-5.2623z" fill="#395273"/>
   <path d="m63.595 94.736-12.016-0.71264-2.4292-8.222 16.333-6.5156z" fill="#293952"/>
   <path d="m61.374 67.235-3.3408 5.8624-13.842-9.2757 14.937-5.1809z" fill="#292929"/>
   <path d="m58.033 73.097-11.356-0.72954-2.4866-8.5462 11.538 0.75822z" fill="#101010"/>
   <path d="m72.053 81.153-14.235-0.89846-2.3139-8.4154 18.918-6.915z" fill="#101010"/>
   <path d="m68.395 53.881-2.9099 5.1047-2.1749-8.7009 2.9593-5.1685z" fill="#734a31"/>
   <path d="m79.336 66.849-11.946-0.65128-2.148-8.5995 16.143-6.3815z" fill="#6b4229"/>
   <path d="m76.15 40.276-2.9258 5.1325-2.0449-8.8687 2.9737-5.1939z" fill="#734a31"/>
   <path d="m87.027 53.223-11.892-0.65661-2.0167-8.773 16.091-6.3878z" fill="#6b4229"/>
   <path d="m99.544 32.428-4.2613 7.5527-15.997-9.7827 18.637-6.772z" fill="#292929"/>
   <path d="m95.283 39.981-14.081-0.84435-1.9166-8.9384 14.309 0.87121z" fill="#101010"/>
   <path d="m71.195 116.11-13.726-0.78527-2.3473-7.8719 18.919-8.009z" fill="#293952"/>
   <path d="m69.499 120.57-5.8065 10.401-18.675-8.5298 22.343-9.6278z" fill="#292929"/>
   <path d="m63.693 130.97-16.14-0.88338-2.5345-7.6464 16.427 0.93814z" fill="#101010"/>
   <path d="m67.637 87.576-4.0419 7.1608-2.2272-8.1879 4.1145-7.2624z" fill="#395273"/>
   <path d="m78.823 102.45-13.583-0.93647-2.2031-8.0787 18.769-7.8549z" fill="#293952"/>
   <path d="m76.423 73.407-4.3701 7.7456-2.0773-8.3776 4.4462-7.8513z" fill="#292929"/>
   <path d="m87.146 88.963-15.919-0.90482-2.0938-8.2755 21.952-9.3364z" fill="#101010"/>
   <path d="m83.27 59.88-3.9338 6.9693-1.951-8.572 4-7.0603z" fill="#734a31"/>
   <path d="m94.732 73.966-13.496-0.87421-1.92-8.48 18.545-7.6914z" fill="#6b4229"/>
   <path d="m90.968 46.241-3.9407 6.9818-1.8226-8.7483 4.0051-7.0692z" fill="#734a31"/>
   <path d="m102.09 60.794-13.477-0.808-1.7958-8.654 18.443-7.6167z" fill="#6b4229"/>
   <path d="m115.69 37.829-5.5204 9.8883-17.442-9.6779 21.611-9.126z" fill="#292929"/>
   <path d="m110.17 47.717-15.741-0.85462-1.7011-8.8233 16.005 0.88609z" fill="#101010"/>
   <path d="m76.056 107.4-4.8616 8.7046-2.1059-7.8284 4.9511-8.8377z" fill="#395273"/>
   <path d="m83.685 93.744-4.8623 8.7054-1.9662-8.036 4.9488-8.834z" fill="#395273"/>
   <path d="m92.807 78.823-5.6612 10.14-1.819-8.2323 5.7588-10.284z" fill="#292929"/>
   <path d="m99.471 65.481-4.7391 8.4851-1.6892-8.445 4.8182-8.6006z" fill="#734a31"/>
   <path d="m106.75 52.447-4.6617 8.3464-1.5671-8.623 4.7369-8.4556z" fill="#734a31"/>
   <path d="m78.697 108.37-9.0413 4.7066 2.0975 7.7472 17.346 0.53708 1.6758-13.944z" fill="#101010" stroke-width=".080997"/>
   <g clip-path="url(#clipPath185906)">
    <rect width="208" height="170" fill="#181818" stop-color="#000000" style="font-variation-settings:normal;paint-order:fill markers stroke"/>
    <path d="m62.24 170 17.701-37.528 73.238-132.47h54.821v170z" fill="#313931" filter="url(#filter194609)" stroke="#292929" stroke-width="2"/>
   </g>
   <path d="m70.933 122.3-9.712 5.8658 2.2549 7.5094c4.9406-0.11476 10.751 0.0611 17.431 0.52591l-1.9336-7.4567z" fill="#101010" stroke-width=".080997"/>
   <path d="m86.518 94.346-8.9618 4.6049 1.955 7.9621 17.226 0.62112 1.8596-14.245z" fill="#101010" stroke-width=".080997"/>
   <g clip-path="url(#clipPath185796)">
    <rect width="208" height="170" fill="#181818" stop-color="#000000" style="font-variation-settings:normal;paint-order:fill markers stroke"/>
    <path d="m62.24 170 17.701-37.528 73.238-132.47h54.821v170z" fill="#313931" filter="url(#filter194605)" stroke="#292929" stroke-width="2"/>
   </g>
   <path d="m104.47 93.53 1.8671-14.227-12.225 1.4212-8.5624 3.93 1.8151 8.1717z" fill="#101010" stroke-width=".080997"/>
   <g clip-path="url(#clipPath185750)">
    <rect width="208" height="170" fill="#181818" stop-color="#000000" style="font-variation-settings:normal;paint-order:fill markers stroke"/>
    <path d="m62.24 170 17.701-37.528 73.238-132.47h54.821v170z" fill="#313931" filter="url(#filter194601)" stroke="#292929" stroke-width="2"/>
   </g>
   <path d="m111.94 80.003 2.0036-14.443-12.3 1.6562-8.4168 3.7082 1.6848 8.3658z" fill="#101010" stroke-width=".080997"/>
   <g clip-path="url(#clipPath185679)">
    <rect width="208" height="170" fill="#181818" stop-color="#000000" style="font-variation-settings:normal;paint-order:fill markers stroke"/>
    <path d="m62.24 170 17.701-37.528 73.238-132.47h54.821v170z" fill="#313931" filter="url(#filter194597)" stroke="#292929" stroke-width="2"/>
   </g>
   <path d="m119.43 66.445 2.0565-14.509-12.371 1.8825-8.1952 3.3514 1.5583 8.5523z" fill="#101010" stroke-width=".080997"/>
   <g clip-path="url(#clipPath185654)">
    <rect width="208" height="170" fill="#181818" stop-color="#000000" style="font-variation-settings:normal;paint-order:fill markers stroke"/>
    <path d="m62.24 170 17.701-37.528 73.238-132.47h54.821v170z" fill="#313931" filter="url(#filter194593)" stroke="#292929" stroke-width="2"/>
   </g>
   <path d="m126.74 53.209 2.6531-15.557-12.438 2.1078-8.4899 3.9187 1.4382 8.7284z" fill="#101010" stroke-width=".080997"/>
   <g clip-path="url(#clipPath185599)">
    <rect width="208" height="170" fill="#181818" stop-color="#000000" style="font-variation-settings:normal;paint-order:fill markers stroke"/>
    <path d="m62.24 170 17.701-37.528 73.238-132.47h54.821v170z" fill="#313931" filter="url(#filter194589)" stroke="#292929" stroke-width="2"/>
   </g>
   <g clip-path="url(#clipPath185553)">
    <rect width="208" height="170" fill="#181818" stop-color="#000000" style="font-variation-settings:normal;paint-order:fill markers stroke"/>
    <path d="m62.24 170 17.701-37.528 73.238-132.47h54.821v170z" fill="#313931" filter="url(#filter194585)" stroke="#292929" stroke-width="2" style="mix-blend-mode:normal"/>
   </g>
   <path d="m165.66 51.264 0.41457 8.5444c0.99756 0.31374 1.9691 0.67467 2.9158 1.0827 6.5764 2.8353 11.925 6.2177 16.09 10.131l2.8568-5.3928c-4.5498-5.2625-10.982-9.681-19.303-13.262-0.96613-0.4156-1.9569-0.78329-2.9739-1.1033z" fill="#101010" stroke-width=".080997"/>
   <path d="m125.03 135.94-6.1775-0.0388 0.24637 1.6778 4.1348 1.6931z" fill="#292929" stroke-width=".080997"/>
   <path d="m150.63 88.466-11.031-0.06931-6.8958 13.076-15.413 25.01 1.5686 9.4231 6.1775 0.0388z" fill="url(#linearGradient152720)" stroke-width=".080997"/>
   <path d="m148.81 82.497-4.7008 8.7145 0.74385 7.9564c1.115 0.36453 2.1512 0.75427 3.1076 1.1693 6.3142 2.7378 11.704 6.1305 16.203 10.159l12.5 2.5392-2.3174-12.565-18.108-8.4155z" fill="#101010" stroke-width=".080997"/>
   <path d="m135.02 30.876-7.469 13.509 1.111 8.6937c8.2399 0.37185 15.898 1.2934 23.04 2.707l14.374 4.0219 10.707 1.3433 8.2985 9.87 8.447-5.8345z" fill="#101010" stroke-width=".080997"/>
   <path d="m155.83 48.18-14.383 36.702-1.8537 3.5146 11.031 0.06931 15.448-28.657-0.41457-8.5441z" fill="url(#linearGradient152947)" stroke-width=".080997"/>
   <path d="m110.73 74.818-5.2096 9.4226 1.4641 8.1413c8.836-0.03886 16.688 0.73801 23.597 2.3026l4.7642 1.7801 7.373-8.0486-5.2318-4.8573z" fill="#101010" stroke-width=".080997"/>
   <g clip-path="url(#clipPath211125)">
    <rect width="208" height="170" fill="#292929" stop-color="#000000" style="-inkscape-stroke:none;font-variation-settings:normal;paint-order:fill markers stroke"/>
    <path d="m120 65 90-17 7 24-87 18z" fill="#6b6b6b" filter="url(#filter150576-5)" stroke="#000" stroke-width="1px" style="mix-blend-mode:normal"/>
   </g>
   <path d="m153.49 151.43-65.2-36.035-7.4684 13.508 1.8997 7.4483c16.465 1.8012 30.389 5.1886 41.796 10.169 13.793 6.0222 23.837 13.842 30.138 23.484z" fill="#101010" stroke-width=".080997"/>
   <g clip-path="url(#clipPath159489)">
    <rect width="208" height="170" fill="#739cc6" stop-color="#000000" style="-inkscape-stroke:none;font-variation-settings:normal;paint-order:fill markers stroke"/>
    <path d="m63 90h22l-0.71659 5.3745-26.283 2.6255-1 3h26v4l-45-2 2-3 19-4z" fill="#5a8cbd" filter="url(#filter159743)" style="mix-blend-mode:normal"/>
    <path d="m2 61 34 12 20 2-8-36z" fill="#5a8cbd" filter="url(#filter160499)"/>
   </g>
   <g clip-path="url(#clipPath156035)">
    <rect width="208" height="170" fill="#de7b4a" stop-color="#000000" style="-inkscape-stroke:none;font-variation-settings:normal;paint-order:fill markers stroke"/>
    <path d="m111 43-59 6 3 22 59-17z" fill="#de7342" filter="url(#filter156042)"/>
    <path d="m9 10 94-7 19 31-106 4z" fill="#efbd8c" filter="url(#filter156776)" style="mix-blend-mode:normal"/>
   </g>
   <g clip-path="url(#clipPath88346)">
    <rect width="208" height="170" fill="#292929" stop-color="#000000" style="-inkscape-stroke:none;paint-order:fill markers stroke"/>
    <path d="m60 69 55-2 17 22-58 1z" fill="#909497" filter="url(#filter92217)" stroke="#4b4b4b" stroke-width="2" style="mix-blend-mode:normal"/>
    <path d="m35 45 105-8-20-67-90 10z" fill="#545756" filter="url(#filter94435)" stroke="#6b6b6b" stroke-width="4" style="mix-blend-mode:normal"/>
    <path d="m130 9.287e-6 15 55 58-7-20-27z" fill="#bfc3c2" filter="url(#filter92973)" stroke="#cecece" stroke-width="4" style="mix-blend-mode:normal"/>
    <path d="m120 85 84-6-6 40-83 1z" fill="#939d9e" filter="url(#filter98087)" stroke="#77787c" stroke-width="8"/>
    <path d="m44 120 39-13 24 36-46 10z" fill="#b9b5b3" filter="url(#filter99550)" stroke="#5a5d5a" stroke-width="4" style="mix-blend-mode:normal"/>
    <path d="m15 85-10 20 10 5 15-20z" fill="#818181" filter="url(#filter101012)" stroke="#646564" stroke-width="1px" style="mix-blend-mode:normal"/>
    <path d="m90 120h110v65l-65-5z" fill="#121212" filter="url(#filter102645)" stroke="#000" stroke-width="1px"/>
    <path d="m65 93 38-4 2 11-41 3z" fill="#403f40" filter="url(#filter104265)" stroke="#426352" stroke-width="1px" style="mix-blend-mode:normal"/>
    <path d="m41 21 24-1 4-29-28 5z" fill="#909190" filter="url(#filter106616)"/>
    <path d="m120 65 90-17 7 24-87 18z" fill="#101010" filter="url(#filter150576)" stroke="#000" stroke-width="1px" style="mix-blend-mode:normal"/>
    <path d="m162 97 22-1 1 20-27 3z" fill="#cedbd7" filter="url(#filter95897)" stroke="#cecece" stroke-width="1px" style="mix-blend-mode:normal"/>
    <path d="m22 115 17 4 14-19-18-5z" fill="#212121" filter="url(#filter155523)" style="mix-blend-mode:normal"/>
    <path d="m144.11 91.212-17.609 32.646 3.2852 1.4355c7.9427 3.4731 14.646 7.5174 20.111 12.139l16.865-31.84c-5.1177-5.3754-11.609-9.7683-19.48-13.186-0.97741-0.42392-2.0346-0.82237-3.1719-1.1953z" fill="none" stroke="#525252" stroke-width=".25" style="mix-blend-mode:normal"/>
    <path d="m105.52 84.242-17.223 31.15c9.0913 0.57875 18.52 2.2622 28.293 5.0547l17.701-32.596c-8.1116-2.4354-17.698-3.6373-28.771-3.6094z" fill="none" stroke="#525252" stroke-width=".25" style="mix-blend-mode:normal"/>
    <path d="m165.66 51.265-16.846 31.232 3.2852 1.334c7.2022 3.1211 13.757 7.2251 19.67 12.318l16.168-30.52c-4.5498-5.2625-10.982-9.681-19.303-13.262-0.96613-0.4156-1.9577-0.7835-2.9746-1.1035z" fill="none" stroke="#525252" stroke-width=".25" style="mix-blend-mode:normal"/>
    <path d="m127.55 44.386-16.826 30.432c9.4775 0.142 18.93 1.538 28.367 4.1875l16.74-30.824c-8.5972-2.0548-18.021-3.3201-28.281-3.7949z" fill="none" stroke="#525252" stroke-width=".25" style="mix-blend-mode:normal"/>
   </g>
  </g>
 </g>
</svg>
